inDegrees=yes
name=ik_S44_A12_T01
DataType=double
version=3
OpenSimVersion=4.3-2021-08-27-4bc7ad9
endheader
time	pelvis_tilt	pelvis_list	pelvis_rotation	pelvis_tx	pelvis_ty	pelvis_tz	hip_flexion_r	hip_adduction_r	hip_rotation_r	knee_angle_r	knee_angle_r_beta	ankle_angle_r	subtalar_angle_r	mtp_angle_r	hip_flexion_l	hip_adduction_l	hip_rotation_l	knee_angle_l	knee_angle_l_beta	ankle_angle_l	subtalar_angle_l	mtp_angle_l	lumbar_extension	lumbar_bending	lumbar_rotation	arm_flex_r	arm_add_r	arm_rot_r	elbow_flex_r	pro_sup_r	wrist_flex_r	wrist_dev_r	arm_flex_l	arm_add_l	arm_rot_l	elbow_flex_l	pro_sup_l	wrist_flex_l	wrist_dev_l
5.499999999999971	0.5976059948139939	1.060862615949964	41.52332386065443	0	0.9399999999999999	0	26.49424593914165	-8.715677594886719	-7.818752420255992	29.77362787674146	0.5196478367127069	0	0	0	26.49424593914165	-8.715677594886719	-7.818752420255992	29.77362787674146	0.5196478367127069	0	0	0	1.573835989123703	0.4742043403384819	5.049653164462041	2.191734327069576	-6.429219301712259	-0.9276719995478054	5.287325466331647	111.2976283780977	0	0	62.17301906560787	-37.86308121431792	-5.512630085963178	11.25566228924931	84.50237714005148	0	0
5.51999999999997	0.5881903021173334	1.087121487046551	41.27263573827518	0	0.9399999999999999	0	26.50518861904128	-8.718171546493631	-7.821472489644245	29.7846599910071	0.5198403834300986	0	0	0	26.50518861904128	-8.718171546493631	-7.821472489644245	29.7846599910071	0.5198403834300986	0	0	0	1.584932627523086	0.501879834753144	5.2098344687103	2.223900712133871	-6.461717669455362	-1.066645241330917	5.314086383244026	111.3270844749338	0	0	65.33473311812899	-37.76009835143205	-3.748246983100155	10.12507119418776	84.39019348069516	0	0
5.53999999999997	0.563670890168201	1.139128893959983	41.06813222723112	0	0.9399999999999999	0	26.51643512159182	-8.720731766820148	-7.824266709795245	29.79599707652402	0.520038252899949	0	0	0	26.51643512159182	-8.720731766820148	-7.824266709795245	29.79599707652402	0.520038252899949	0	0	0	1.598216687325655	0.5622066648449655	5.232684356893535	2.261398392660902	-6.52783536074277	-1.141041804853466	5.322160111172839	111.303791583793	0	0	65.1777413776319	-37.93196838377204	-3.900096474410434	12.8776817487332	83.55791422708259	0	0
5.559999999999969	0.4644156960686532	1.272898654475986	40.46619409033628	0	0.9399999999999999	0	26.68370298646868	-8.747505881241077	-7.85803996232065	30.00892161143538	0.5237544870924299	0	0	0	26.68370298646868	-8.747505881241077	-7.85803996232065	30.00892161143538	0.5237544870924299	0	0	0	1.612260048906583	0.7317969475981629	5.339832784281447	2.273109728578731	-6.798894957603417	-0.8653947242577753	5.364766960661513	111.2109789854817	0	0	70.47201023727347	-37.4455602213045	-0.7207014015241533	12.70013351532181	81.47516533965512	0	0
5.579999999999969	0.3784383052788338	1.333698662941798	40.15929362380098	0	0.9399999999999999	0	26.69468161171696	-8.74997796406652	-7.860753332258906	30.01996531196727	0.5239472360283156	0	0	0	26.69468161171696	-8.74997796406652	-7.860753332258906	30.01996531196727	0.5239472360283156	0	0	0	1.585222904406322	0.838984151684024	5.445092126212817	2.351771781429886	-6.990762801890968	-0.9600560172318583	5.410998172062174	111.1437141692416	0	0	72.8585661881457	-37.08983092497584	0.6247287798804069	12.03898020973043	80.88240785414777	0	0
5.599999999999969	0.3072513215951749	1.413360861279973	39.84344870632609	0	0.9399999999999999	0	26.70502195573815	-8.752304021282407	-7.863307906708411	30.03036538521576	0.5241287515489503	0	0	0	26.70502195573815	-8.752304021282407	-7.863307906708411	30.03036538521576	0.5241287515489503	0	0	0	1.579985553326908	0.9517525765215256	5.564046152435884	2.343355413188295	-7.174623844037398	-1.146529916570038	5.483715028851051	111.130137563122	0	0	75.07780915702709	-36.61239970882156	1.900738205874254	12.83465642565545	80.11917791496512	0	0
5.619999999999968	0.2350502115548991	1.474525426192868	39.52467330270405	0	0.9399999999999999	0	26.71500747462427	-8.754548117410598	-7.865773851059786	30.04040709453438	0.5243040124390884	0	0	0	26.71500747462427	-8.754548117410598	-7.865773851059786	30.04040709453438	0.5243040124390884	0	0	0	1.561235419322508	1.05196883070388	5.699307025412568	2.367197114974199	-7.327131398270146	-1.402122780100483	5.589108478005375	110.6955902956377	0	0	77.36158386271697	-35.99648948337771	3.310222394941641	13.35298532900818	79.58425273548367	0	0
5.639999999999968	0.1712155112051758	1.533839441883965	39.20255127546611	0	0.9399999999999999	0	26.72476235806344	-8.756737159114101	-7.868181085773541	30.05022033011218	0.5244752857101947	0	0	0	26.72476235806344	-8.756737159114101	-7.868181085773541	30.05022033011218	0.5244752857101947	0	0	0	1.54711021898346	1.144366940724561	5.82532683033438	2.389646800915923	-7.494449806681207	-1.597878803356326	5.616809688645229	110.8582646294481	0	0	79.58284773223515	-35.30325003333013	4.552086338374238	13.78950299367376	79.54544911265288	0	0
5.659999999999967	0.1393958352469198	1.590651149754457	38.88847314156687	0	0.9399999999999999	0	26.83194451080466	-8.774095603143168	-7.889968852936204	30.18509915611826	0.5268293653152255	0	0	0	26.83194451080466	-8.774095603143168	-7.889968852936204	30.18509915611826	0.5268293653152255	0	0	0	1.558491895043632	1.214914800569177	5.964160033179347	2.350435175071281	-7.609198074101209	-1.718200011615341	5.652239181146826	110.7826007616744	0	0	84.03742995354868	-33.52953488869255	7.42284905965098	11.87255229986468	79.66572290528624	0	0
5.679999999999967	0.09201798722530115	1.645184617782445	38.57869209176883	0	0.9399999999999999	0	26.84116807675749	-8.776147525812581	-7.892235291878951	30.19437315811242	0.5269912271848601	0	0	0	26.84116807675749	-8.776147525812581	-7.892235291878951	30.19437315811242	0.5269912271848601	0	0	0	1.552995192906257	1.293449139694538	6.090678475357314	2.385096470070448	-7.719062968819862	-1.73478636344114	5.682579412283737	110.6909258343399	0	0	85.91528406952966	-32.56043120280371	8.787557916300155	12.12861322216151	79.73068629674474	0	0
5.699999999999966	0.07498565737404139	1.661220236941856	38.43650247066466	0	0.9399999999999999	0	26.85159978217843	-8.778462161109355	-7.894794965534295	30.20487469512214	0.5271745135821997	0	0	0	26.85159978217843	-8.778462161109355	-7.894794965534295	30.20487469512214	0.5271745135821997	0	0	0	1.547599794799886	1.319556195409752	6.134925456138116	2.430018167028118	-7.754760401035325	-1.804005138392178	5.69663428583131	110.6648357454286	0	0	85.86303974949139	-32.58447062224717	8.78289039794937	14.07519586715733	80.16069484706156	0	0
